# xmcd
#
# Track frame offsets: 
#        150
#        10532
#        22177
#        34367
#        45420
#        58092
#        68790
#        80927
#        92382
#        105357
#        120650
#
# Disc length: 1750 seconds
#
# Revision: 1
# Processed by: cddbd v1.5.2PL0 Copyright (c) Steve Scherf et al.
# Submitted via: ExactAudioCopy v1.0b3
#
DISCID=8606d40b
DTITLE=Bob Wills - The Hits (Mercury)
DYEAR=1997
DGENRE=Western Swing
TTITLE0=Bubbles In My Beer
TTITLE1=Little Cowboy Lullaby
TTITLE2=Keeper of My Heart
TTITLE3=Don't Be Ashamed of Your Age
TTITLE4=Cotton Patch Blues
TTITLE5=Thorn In My Heart
TTITLE6=Ida Red Like to Boogie
TTITLE7=I Ain't Got Nobody
TTITLE8=Faded Love
TTITLE9=St. Louis Blues
TTITLE10=Texas Blues
EXTD=
EXTT0=
EXTT1=
EXTT2=
EXTT3=
EXTT4=
EXTT5=
EXTT6=
EXTT7=
EXTT8=
EXTT9=
EXTT10=
PLAYORDER=
